STARTFONT 2.1
COMMENT screen bold font, 9 x 15 pixels
FONT -misc-fixed-bold-r-normal-sans-15-140-75-75-c-90-iso8859-2
SIZE 15 75 75
FONTBOUNDINGBOX 9 15 0 -2
STARTPROPERTIES 25
FONT_ASCENT 13
FONT_DESCENT 2
DEFAULT_CHAR 0
FONTNAME_REGISTRY ""
FOUNDRY "Misc"
FAMILY_NAME "Fixed"
WEIGHT_NAME "Bold"
SLANT "R"
SETWIDTH_NAME "Normal"
ADD_STYLE_NAME "Sans"
PIXEL_SIZE 15
POINT_SIZE 140
RESOLUTION_X 75
RESOLUTION_Y 75
SPACING "C"
AVERAGE_WIDTH 90
CHARSET_REGISTRY "ISO8859"
CHARSET_ENCODING "2"
COPYRIGHT "Libor Skarvada, libor@informatics.muni.cz"
FONT "-Misc-Fixed-Bold-R-Normal-Sans-15-140-75-75-C-90-ISO8859-2"
WEIGHT 10
RESOLUTION 103
CAP_HEIGHT 10
X_HEIGHT 7
QUAD_WIDTH 9
ENDPROPERTIES
CHARS 224
STARTCHAR 0
ENCODING 0
SWIDTH 617 0
DWIDTH 9 0
BBX 1 1 0 -2
BITMAP
00
ENDCHAR
STARTCHAR 1
ENCODING 1
SWIDTH 617 0
DWIDTH 9 0
BBX 8 7 0 1
BITMAP
18
3c
7e
ff
7e
3c
18
ENDCHAR
STARTCHAR 2
ENCODING 2
SWIDTH 617 0
DWIDTH 9 0
BBX 8 14 0 -2
BITMAP
aa
55
aa
55
aa
55
aa
55
aa
55
aa
55
aa
55
ENDCHAR
STARTCHAR 3
ENCODING 3
SWIDTH 617 0
DWIDTH 9 0
BBX 8 11 0 -1
BITMAP
cc
cc
fc
cc
cc
00
3f
0c
0c
0c
0c
ENDCHAR
STARTCHAR 4
ENCODING 4
SWIDTH 617 0
DWIDTH 9 0
BBX 8 11 0 -1
BITMAP
f8
c0
f0
c0
c0
00
1f
18
1e
18
18
ENDCHAR
STARTCHAR 5
ENCODING 5
SWIDTH 617 0
DWIDTH 9 0
BBX 8 11 0 -1
BITMAP
7c
c4
c0
c4
7c
00
3e
33
3e
33
33
ENDCHAR
STARTCHAR 6
ENCODING 6
SWIDTH 617 0
DWIDTH 9 0
BBX 8 11 0 -1
BITMAP
c0
c0
c0
c0
f8
00
1f
18
1e
18
18
ENDCHAR
STARTCHAR 7
ENCODING 7
SWIDTH 617 0
DWIDTH 9 0
BBX 6 4 1 7
BITMAP
78
cc
cc
78
ENDCHAR
STARTCHAR 8
ENCODING 8
SWIDTH 617 0
DWIDTH 9 0
BBX 8 11 0 0
BITMAP
18
18
18
ff
ff
18
18
18
00
ff
ff
ENDCHAR
STARTCHAR 9
ENCODING 9
SWIDTH 617 0
DWIDTH 9 0
BBX 8 11 0 -1
BITMAP
cc
ec
fc
dc
cc
00
18
18
18
18
1f
ENDCHAR
STARTCHAR 10
ENCODING 10
SWIDTH 617 0
DWIDTH 9 0
BBX 8 11 0 -1
BITMAP
cc
cc
cc
78
30
00
3f
0c
0c
0c
0c
ENDCHAR
STARTCHAR 11
ENCODING 11
SWIDTH 617 0
DWIDTH 9 0
BBX 5 9 0 4
BITMAP
18
18
18
18
18
18
18
f8
f8
ENDCHAR
STARTCHAR 12
ENCODING 12
SWIDTH 617 0
DWIDTH 9 0
BBX 5 8 0 -2
BITMAP
f8
f8
18
18
18
18
18
18
ENDCHAR
STARTCHAR 13
ENCODING 13
SWIDTH 617 0
DWIDTH 9 0
BBX 6 8 3 -2
BITMAP
fc
fc
c0
c0
c0
c0
c0
c0
ENDCHAR
STARTCHAR 14
ENCODING 14
SWIDTH 617 0
DWIDTH 9 0
BBX 6 9 3 4
BITMAP
c0
c0
c0
c0
c0
c0
c0
fc
fc
ENDCHAR
STARTCHAR 15
ENCODING 15
SWIDTH 617 0
DWIDTH 9 0
BBX 9 15 0 -2
BITMAP
1800
1800
1800
1800
1800
1800
1800
ff80
ff80
1800
1800
1800
1800
1800
1800
ENDCHAR
STARTCHAR 16
ENCODING 16
SWIDTH 617 0
DWIDTH 9 0
BBX 9 2 0 8
BITMAP
ff80
ff80
ENDCHAR
STARTCHAR 17
ENCODING 17
SWIDTH 617 0
DWIDTH 9 0
BBX 9 2 0 6
BITMAP
ff80
ff80
ENDCHAR
STARTCHAR 18
ENCODING 18
SWIDTH 617 0
DWIDTH 9 0
BBX 9 2 0 4
BITMAP
ff80
ff80
ENDCHAR
STARTCHAR 19
ENCODING 19
SWIDTH 617 0
DWIDTH 9 0
BBX 9 2 0 2
BITMAP
ff80
ff80
ENDCHAR
STARTCHAR 20
ENCODING 20
SWIDTH 617 0
DWIDTH 9 0
BBX 9 2 0 0
BITMAP
ff80
ff80
ENDCHAR
STARTCHAR 21
ENCODING 21
SWIDTH 617 0
DWIDTH 9 0
BBX 6 15 3 -2
BITMAP
c0
c0
c0
c0
c0
c0
c0
fc
fc
c0
c0
c0
c0
c0
c0
ENDCHAR
STARTCHAR 22
ENCODING 22
SWIDTH 617 0
DWIDTH 9 0
BBX 5 15 0 -2
BITMAP
18
18
18
18
18
18
18
f8
f8
18
18
18
18
18
18
ENDCHAR
STARTCHAR 23
ENCODING 23
SWIDTH 617 0
DWIDTH 9 0
BBX 9 9 0 4
BITMAP
1800
1800
1800
1800
1800
1800
1800
ff80
ff80
ENDCHAR
STARTCHAR 24
ENCODING 24
SWIDTH 617 0
DWIDTH 9 0
BBX 9 8 0 -2
BITMAP
ff80
ff80
1800
1800
1800
1800
1800
1800
ENDCHAR
STARTCHAR 25
ENCODING 25
SWIDTH 617 0
DWIDTH 9 0
BBX 2 15 3 -2
BITMAP
c0
c0
c0
c0
c0
c0
c0
c0
c0
c0
c0
c0
c0
c0
c0
ENDCHAR
STARTCHAR 26
ENCODING 26
SWIDTH 617 0
DWIDTH 9 0
BBX 8 10 0 0
BITMAP
07
1c
70
c0
70
1c
07
00
ff
ff
ENDCHAR
STARTCHAR 27
ENCODING 27
SWIDTH 617 0
DWIDTH 9 0
BBX 8 10 0 0
BITMAP
e0
38
0e
03
0e
38
e0
00
ff
ff
ENDCHAR
STARTCHAR 28
ENCODING 28
SWIDTH 617 0
DWIDTH 9 0
BBX 8 7 0 0
BITMAP
ff
ff
26
26
26
66
e6
ENDCHAR
STARTCHAR 29
ENCODING 29
SWIDTH 617 0
DWIDTH 9 0
BBX 8 9 0 0
BITMAP
03
06
ff
ff
18
ff
ff
60
c0
ENDCHAR
STARTCHAR 30
ENCODING 30
SWIDTH 617 0
DWIDTH 9 0
BBX 8 10 0 -1
BITMAP
1e
33
30
30
7e
30
30
f8
bf
e0
ENDCHAR
STARTCHAR 31
ENCODING 31
SWIDTH 617 0
DWIDTH 9 0
BBX 2 2 3 3
BITMAP
c0
c0
ENDCHAR
STARTCHAR 32
ENCODING 32
SWIDTH 617 0
DWIDTH 9 0
BBX 1 1 0 -2
BITMAP
00
ENDCHAR
STARTCHAR 33
ENCODING 33
SWIDTH 617 0
DWIDTH 9 0
BBX 2 10 3 0
BITMAP
c0
c0
c0
c0
c0
c0
c0
c0
00
c0
ENDCHAR
STARTCHAR 34
ENCODING 34
SWIDTH 617 0
DWIDTH 9 0
BBX 5 3 2 7
BITMAP
d8
d8
d8
ENDCHAR
STARTCHAR 35
ENCODING 35
SWIDTH 617 0
DWIDTH 9 0
BBX 7 8 0 1
BITMAP
6c
6c
fe
6c
6c
fe
6c
6c
ENDCHAR
STARTCHAR 36
ENCODING 36
SWIDTH 617 0
DWIDTH 9 0
BBX 7 11 1 -1
BITMAP
10
7c
d6
d0
f0
7c
1e
16
d6
7c
10
ENDCHAR
STARTCHAR 37
ENCODING 37
SWIDTH 617 0
DWIDTH 9 0
BBX 8 10 0 0
BITMAP
43
e6
e6
4c
18
18
32
67
67
c2
ENDCHAR
STARTCHAR 38
ENCODING 38
SWIDTH 617 0
DWIDTH 9 0
BBX 8 10 0 0
BITMAP
38
6c
6c
78
30
79
cf
c6
ce
7b
ENDCHAR
STARTCHAR 39
ENCODING 39
SWIDTH 617 0
DWIDTH 9 0
BBX 4 3 2 7
BITMAP
70
70
c0
ENDCHAR
STARTCHAR 40
ENCODING 40
SWIDTH 617 0
DWIDTH 9 0
BBX 5 12 2 -1
BITMAP
18
30
60
60
c0
c0
c0
c0
60
60
30
18
ENDCHAR
STARTCHAR 41
ENCODING 41
SWIDTH 617 0
DWIDTH 9 0
BBX 5 12 1 -1
BITMAP
c0
60
30
30
18
18
18
18
30
30
60
c0
ENDCHAR
STARTCHAR 42
ENCODING 42
SWIDTH 617 0
DWIDTH 9 0
BBX 7 5 0 2
BITMAP
6c
38
fe
38
6c
ENDCHAR
STARTCHAR 43
ENCODING 43
SWIDTH 617 0
DWIDTH 9 0
BBX 8 7 0 1
BITMAP
18
18
18
ff
18
18
18
ENDCHAR
STARTCHAR 44
ENCODING 44
SWIDTH 617 0
DWIDTH 9 0
BBX 5 3 1 -1
BITMAP
78
70
c0
ENDCHAR
STARTCHAR 45
ENCODING 45
SWIDTH 617 0
DWIDTH 9 0
BBX 8 1 0 4
BITMAP
ff
ENDCHAR
STARTCHAR 46
ENCODING 46
SWIDTH 617 0
DWIDTH 9 0
BBX 4 3 2 -1
BITMAP
60
f0
60
ENDCHAR
STARTCHAR 47
ENCODING 47
SWIDTH 617 0
DWIDTH 9 0
BBX 8 10 0 0
BITMAP
03
06
06
0c
18
18
30
60
60
c0
ENDCHAR
STARTCHAR 48
ENCODING 48
SWIDTH 617 0
DWIDTH 9 0
BBX 8 10 0 0
BITMAP
18
3c
66
c3
c3
c3
c3
66
3c
18
ENDCHAR
STARTCHAR 49
ENCODING 49
SWIDTH 617 0
DWIDTH 9 0
BBX 6 10 1 0
BITMAP
30
70
f0
30
30
30
30
30
30
fc
ENDCHAR
STARTCHAR 50
ENCODING 50
SWIDTH 617 0
DWIDTH 9 0
BBX 8 10 0 0
BITMAP
3c
66
c3
03
06
0c
18
30
60
ff
ENDCHAR
STARTCHAR 51
ENCODING 51
SWIDTH 617 0
DWIDTH 9 0
BBX 8 10 0 0
BITMAP
7c
c6
03
06
1c
06
03
03
c6
7c
ENDCHAR
STARTCHAR 52
ENCODING 52
SWIDTH 617 0
DWIDTH 9 0
BBX 8 10 0 0
BITMAP
06
0e
1e
36
66
c6
ff
06
06
06
ENDCHAR
STARTCHAR 53
ENCODING 53
SWIDTH 617 0
DWIDTH 9 0
BBX 8 10 0 0
BITMAP
fe
c0
c0
dc
e6
03
03
c3
66
3c
ENDCHAR
STARTCHAR 54
ENCODING 54
SWIDTH 617 0
DWIDTH 9 0
BBX 8 10 0 0
BITMAP
3c
66
c2
c0
dc
e6
c3
c3
66
3c
ENDCHAR
STARTCHAR 55
ENCODING 55
SWIDTH 617 0
DWIDTH 9 0
BBX 8 10 0 0
BITMAP
ff
03
03
06
0c
18
30
60
c0
c0
ENDCHAR
STARTCHAR 56
ENCODING 56
SWIDTH 617 0
DWIDTH 9 0
BBX 8 10 0 0
BITMAP
3c
66
c3
66
3c
66
c3
c3
66
3c
ENDCHAR
STARTCHAR 57
ENCODING 57
SWIDTH 617 0
DWIDTH 9 0
BBX 8 10 0 0
BITMAP
3c
66
c3
c3
67
3b
03
43
66
3c
ENDCHAR
STARTCHAR 58
ENCODING 58
SWIDTH 617 0
DWIDTH 9 0
BBX 4 8 2 -1
BITMAP
60
f0
60
00
00
60
f0
60
ENDCHAR
STARTCHAR 59
ENCODING 59
SWIDTH 617 0
DWIDTH 9 0
BBX 5 8 1 -1
BITMAP
30
78
30
00
00
78
70
c0
ENDCHAR
STARTCHAR 60
ENCODING 60
SWIDTH 617 0
DWIDTH 9 0
BBX 6 10 1 0
BITMAP
0c
18
30
60
c0
c0
60
30
18
0c
ENDCHAR
STARTCHAR 61
ENCODING 61
SWIDTH 617 0
DWIDTH 9 0
BBX 8 4 0 2
BITMAP
ff
00
00
ff
ENDCHAR
STARTCHAR 62
ENCODING 62
SWIDTH 617 0
DWIDTH 9 0
BBX 6 10 0 0
BITMAP
c0
60
30
18
0c
0c
18
30
60
c0
ENDCHAR
STARTCHAR 63
ENCODING 63
SWIDTH 617 0
DWIDTH 9 0
BBX 7 10 1 0
BITMAP
7c
c6
c6
06
0c
18
30
00
30
30
ENDCHAR
STARTCHAR 64
ENCODING 64
SWIDTH 617 0
DWIDTH 9 0
BBX 8 10 0 0
BITMAP
3c
66
c3
cf
db
db
ce
c0
63
3e
ENDCHAR
STARTCHAR 65
ENCODING 65
SWIDTH 617 0
DWIDTH 9 0
BBX 8 10 0 0
BITMAP
18
3c
66
c3
c3
c3
ff
c3
c3
c3
ENDCHAR
STARTCHAR 66
ENCODING 66
SWIDTH 617 0
DWIDTH 9 0
BBX 8 10 0 0
BITMAP
fc
c6
c3
c6
fc
c6
c3
c3
c6
fc
ENDCHAR
STARTCHAR 67
ENCODING 67
SWIDTH 617 0
DWIDTH 9 0
BBX 8 10 0 0
BITMAP
3e
63
c1
c0
c0
c0
c0
c1
63
3e
ENDCHAR
STARTCHAR 68
ENCODING 68
SWIDTH 617 0
DWIDTH 9 0
BBX 8 10 0 0
BITMAP
fc
c6
c3
c3
c3
c3
c3
c3
c6
fc
ENDCHAR
STARTCHAR 69
ENCODING 69
SWIDTH 617 0
DWIDTH 9 0
BBX 7 10 0 0
BITMAP
fe
c0
c0
c0
fc
c0
c0
c0
c0
fe
ENDCHAR
STARTCHAR 70
ENCODING 70
SWIDTH 617 0
DWIDTH 9 0
BBX 8 10 0 0
BITMAP
ff
c0
c0
c0
fc
c0
c0
c0
c0
c0
ENDCHAR
STARTCHAR 71
ENCODING 71
SWIDTH 617 0
DWIDTH 9 0
BBX 8 10 0 0
BITMAP
3e
63
c0
c0
c0
c7
c3
c3
63
3e
ENDCHAR
STARTCHAR 72
ENCODING 72
SWIDTH 617 0
DWIDTH 9 0
BBX 8 10 0 0
BITMAP
c3
c3
c3
c3
ff
c3
c3
c3
c3
c3
ENDCHAR
STARTCHAR 73
ENCODING 73
SWIDTH 617 0
DWIDTH 9 0
BBX 6 10 1 0
BITMAP
fc
30
30
30
30
30
30
30
30
fc
ENDCHAR
STARTCHAR 74
ENCODING 74
SWIDTH 617 0
DWIDTH 9 0
BBX 6 10 1 0
BITMAP
3c
0c
0c
0c
0c
0c
0c
8c
d8
70
ENDCHAR
STARTCHAR 75
ENCODING 75
SWIDTH 617 0
DWIDTH 9 0
BBX 8 10 0 0
BITMAP
c3
c6
cc
d8
f0
f0
d8
cc
c6
c3
ENDCHAR
STARTCHAR 76
ENCODING 76
SWIDTH 617 0
DWIDTH 9 0
BBX 7 10 0 0
BITMAP
c0
c0
c0
c0
c0
c0
c0
c0
c0
fe
ENDCHAR
STARTCHAR 77
ENCODING 77
SWIDTH 617 0
DWIDTH 9 0
BBX 8 10 0 0
BITMAP
c3
e7
ff
db
db
db
c3
c3
c3
c3
ENDCHAR
STARTCHAR 78
ENCODING 78
SWIDTH 617 0
DWIDTH 9 0
BBX 8 10 0 0
BITMAP
c3
e3
f3
f3
db
db
cf
c7
c7
c3
ENDCHAR
STARTCHAR 79
ENCODING 79
SWIDTH 617 0
DWIDTH 9 0
BBX 8 10 0 0
BITMAP
3c
66
c3
c3
c3
c3
c3
c3
66
3c
ENDCHAR
STARTCHAR 80
ENCODING 80
SWIDTH 617 0
DWIDTH 9 0
BBX 8 10 0 0
BITMAP
fe
c3
c3
c3
fe
c0
c0
c0
c0
c0
ENDCHAR
STARTCHAR 81
ENCODING 81
SWIDTH 617 0
DWIDTH 9 0
BBX 8 10 0 0
BITMAP
3c
66
c3
c3
c3
c3
db
cf
66
3d
ENDCHAR
STARTCHAR 82
ENCODING 82
SWIDTH 617 0
DWIDTH 9 0
BBX 8 10 0 0
BITMAP
fe
c3
c3
c3
fe
f8
cc
c6
c3
c3
ENDCHAR
STARTCHAR 83
ENCODING 83
SWIDTH 617 0
DWIDTH 9 0
BBX 8 10 0 0
BITMAP
7e
c3
c0
c0
7e
03
03
03
c3
7e
ENDCHAR
STARTCHAR 84
ENCODING 84
SWIDTH 617 0
DWIDTH 9 0
BBX 8 10 0 0
BITMAP
ff
18
18
18
18
18
18
18
18
18
ENDCHAR
STARTCHAR 85
ENCODING 85
SWIDTH 617 0
DWIDTH 9 0
BBX 8 10 0 0
BITMAP
c3
c3
c3
c3
c3
c3
c3
c3
66
3c
ENDCHAR
STARTCHAR 86
ENCODING 86
SWIDTH 617 0
DWIDTH 9 0
BBX 8 10 0 0
BITMAP
c3
c3
c3
66
66
66
3c
3c
18
18
ENDCHAR
STARTCHAR 87
ENCODING 87
SWIDTH 617 0
DWIDTH 9 0
BBX 8 10 0 0
BITMAP
c3
c3
c3
c3
db
db
db
ff
e7
c3
ENDCHAR
STARTCHAR 88
ENCODING 88
SWIDTH 617 0
DWIDTH 9 0
BBX 8 10 0 0
BITMAP
c3
c3
66
3c
18
18
3c
66
c3
c3
ENDCHAR
STARTCHAR 89
ENCODING 89
SWIDTH 617 0
DWIDTH 9 0
BBX 8 10 0 0
BITMAP
c3
c3
66
3c
18
18
18
18
18
18
ENDCHAR
STARTCHAR 90
ENCODING 90
SWIDTH 617 0
DWIDTH 9 0
BBX 7 10 0 0
BITMAP
fe
06
06
0c
18
30
60
c0
c0
fe
ENDCHAR
STARTCHAR 91
ENCODING 91
SWIDTH 617 0
DWIDTH 9 0
BBX 5 10 2 0
BITMAP
f8
c0
c0
c0
c0
c0
c0
c0
c0
f8
ENDCHAR
STARTCHAR 92
ENCODING 92
SWIDTH 617 0
DWIDTH 9 0
BBX 8 10 0 0
BITMAP
c0
60
60
30
18
18
0c
06
06
03
ENDCHAR
STARTCHAR 93
ENCODING 93
SWIDTH 617 0
DWIDTH 9 0
BBX 5 10 1 0
BITMAP
f8
18
18
18
18
18
18
18
18
f8
ENDCHAR
STARTCHAR 94
ENCODING 94
SWIDTH 617 0
DWIDTH 9 0
BBX 6 4 1 7
BITMAP
30
78
cc
84
ENDCHAR
STARTCHAR 95
ENCODING 95
SWIDTH 617 0
DWIDTH 9 0
BBX 8 1 0 -1
BITMAP
ff
ENDCHAR
STARTCHAR 96
ENCODING 96
SWIDTH 617 0
DWIDTH 9 0
BBX 4 3 2 7
BITMAP
e0
e0
30
ENDCHAR
STARTCHAR 97
ENCODING 97
SWIDTH 617 0
DWIDTH 9 0
BBX 8 7 0 0
BITMAP
3e
63
03
7f
c3
c7
7b
ENDCHAR
STARTCHAR 98
ENCODING 98
SWIDTH 617 0
DWIDTH 9 0
BBX 8 10 0 0
BITMAP
c0
c0
c0
dc
e6
c3
c3
c3
e6
dc
ENDCHAR
STARTCHAR 99
ENCODING 99
SWIDTH 617 0
DWIDTH 9 0
BBX 8 7 0 0
BITMAP
3e
63
c0
c0
c0
63
3e
ENDCHAR
STARTCHAR 100
ENCODING 100
SWIDTH 617 0
DWIDTH 9 0
BBX 8 10 0 0
BITMAP
03
03
03
3b
67
c3
c3
c3
67
3b
ENDCHAR
STARTCHAR 101
ENCODING 101
SWIDTH 617 0
DWIDTH 9 0
BBX 8 7 0 0
BITMAP
3c
66
c3
ff
c0
63
3e
ENDCHAR
STARTCHAR 102
ENCODING 102
SWIDTH 617 0
DWIDTH 9 0
BBX 8 10 0 0
BITMAP
1e
33
33
30
30
fc
30
30
30
30
ENDCHAR
STARTCHAR 103
ENCODING 103
SWIDTH 617 0
DWIDTH 9 0
BBX 8 9 0 -2
BITMAP
7d
c7
c6
c6
7c
c0
7e
c3
7e
ENDCHAR
STARTCHAR 104
ENCODING 104
SWIDTH 617 0
DWIDTH 9 0
BBX 8 10 0 0
BITMAP
c0
c0
c0
dc
e6
c3
c3
c3
c3
c3
ENDCHAR
STARTCHAR 105
ENCODING 105
SWIDTH 617 0
DWIDTH 9 0
BBX 6 10 1 0
BITMAP
30
30
00
70
30
30
30
30
30
fc
ENDCHAR
STARTCHAR 106
ENCODING 106
SWIDTH 617 0
DWIDTH 9 0
BBX 7 12 0 -2
BITMAP
06
06
00
0e
06
06
06
06
06
c6
c6
7c
ENDCHAR
STARTCHAR 107
ENCODING 107
SWIDTH 617 0
DWIDTH 9 0
BBX 7 10 1 0
BITMAP
c0
c0
c0
cc
d8
f0
f0
d8
cc
c6
ENDCHAR
STARTCHAR 108
ENCODING 108
SWIDTH 617 0
DWIDTH 9 0
BBX 4 10 2 0
BITMAP
e0
60
60
60
60
60
60
60
60
f0
ENDCHAR
STARTCHAR 109
ENCODING 109
SWIDTH 617 0
DWIDTH 9 0
BBX 8 7 0 0
BITMAP
b6
db
db
db
db
db
db
ENDCHAR
STARTCHAR 110
ENCODING 110
SWIDTH 617 0
DWIDTH 9 0
BBX 8 7 0 0
BITMAP
dc
e6
c3
c3
c3
c3
c3
ENDCHAR
STARTCHAR 111
ENCODING 111
SWIDTH 617 0
DWIDTH 9 0
BBX 8 7 0 0
BITMAP
3c
66
c3
c3
c3
66
3c
ENDCHAR
STARTCHAR 112
ENCODING 112
SWIDTH 617 0
DWIDTH 9 0
BBX 8 9 0 -2
BITMAP
dc
e6
c3
c3
c3
e6
dc
c0
c0
ENDCHAR
STARTCHAR 113
ENCODING 113
SWIDTH 617 0
DWIDTH 9 0
BBX 8 9 0 -2
BITMAP
3b
67
c3
c3
c3
67
3b
03
03
ENDCHAR
STARTCHAR 114
ENCODING 114
SWIDTH 617 0
DWIDTH 9 0
BBX 8 7 0 0
BITMAP
de
73
60
60
60
60
60
ENDCHAR
STARTCHAR 115
ENCODING 115
SWIDTH 617 0
DWIDTH 9 0
BBX 8 7 0 0
BITMAP
7e
c3
c0
7e
03
c3
7e
ENDCHAR
STARTCHAR 116
ENCODING 116
SWIDTH 617 0
DWIDTH 9 0
BBX 8 9 0 0
BITMAP
30
30
fc
30
30
30
30
33
1e
ENDCHAR
STARTCHAR 117
ENCODING 117
SWIDTH 617 0
DWIDTH 9 0
BBX 8 7 0 0
BITMAP
c3
c3
c3
c3
c3
67
3b
ENDCHAR
STARTCHAR 118
ENCODING 118
SWIDTH 617 0
DWIDTH 9 0
BBX 8 7 0 0
BITMAP
c3
c3
66
66
3c
3c
18
ENDCHAR
STARTCHAR 119
ENCODING 119
SWIDTH 617 0
DWIDTH 9 0
BBX 8 7 0 0
BITMAP
c3
c3
db
db
db
ff
66
ENDCHAR
STARTCHAR 120
ENCODING 120
SWIDTH 617 0
DWIDTH 9 0
BBX 8 7 0 0
BITMAP
c3
66
3c
18
3c
66
c3
ENDCHAR
STARTCHAR 121
ENCODING 121
SWIDTH 617 0
DWIDTH 9 0
BBX 8 9 0 -2
BITMAP
c3
c3
c3
c3
c3
67
3b
83
7e
ENDCHAR
STARTCHAR 122
ENCODING 122
SWIDTH 617 0
DWIDTH 9 0
BBX 6 7 1 0
BITMAP
fc
0c
18
30
60
c0
fc
ENDCHAR
STARTCHAR 123
ENCODING 123
SWIDTH 617 0
DWIDTH 9 0
BBX 5 10 2 0
BITMAP
38
60
60
60
c0
c0
60
60
60
38
ENDCHAR
STARTCHAR 124
ENCODING 124
SWIDTH 617 0
DWIDTH 9 0
BBX 2 10 3 0
BITMAP
c0
c0
c0
c0
c0
c0
c0
c0
c0
c0
ENDCHAR
STARTCHAR 125
ENCODING 125
SWIDTH 617 0
DWIDTH 9 0
BBX 5 10 1 0
BITMAP
e0
30
30
30
18
18
30
30
30
e0
ENDCHAR
STARTCHAR 126
ENCODING 126
SWIDTH 617 0
DWIDTH 9 0
BBX 8 3 0 8
BITMAP
73
db
ce
ENDCHAR
STARTCHAR 127
ENCODING 127
SWIDTH 617 0
DWIDTH 9 0
BBX 1 1 0 -2
BITMAP
00
ENDCHAR
STARTCHAR 160
ENCODING 160
SWIDTH 617 0
DWIDTH 9 0
BBX 1 1 0 -2
BITMAP
00
ENDCHAR
STARTCHAR 161
ENCODING 161
SWIDTH 617 0
DWIDTH 9 0
BBX 8 12 0 -2
BITMAP
18
3c
66
c3
c3
c3
ff
c3
c3
c3
04
03
ENDCHAR
STARTCHAR 162
ENCODING 162
SWIDTH 617 0
DWIDTH 9 0
BBX 8 3 0 8
BITMAP
c3
7e
18
ENDCHAR
STARTCHAR 163
ENCODING 163
SWIDTH 617 0
DWIDTH 9 0
BBX 7 10 0 0
BITMAP
60
60
64
6c
78
70
e0
e0
60
7e
ENDCHAR
STARTCHAR 164
ENCODING 164
SWIDTH 617 0
DWIDTH 9 0
BBX 7 7 1 2
BITMAP
c6
fe
6c
44
6c
fe
c6
ENDCHAR
STARTCHAR 165
ENCODING 165
SWIDTH 617 0
DWIDTH 9 0
BBX 7 12 0 0
BITMAP
1c
0c
cc
d8
c0
c0
c0
c0
c0
c0
c0
fe
ENDCHAR
STARTCHAR 166
ENCODING 166
SWIDTH 617 0
DWIDTH 9 0
BBX 8 13 0 0
BITMAP
0e
38
00
7e
c3
c0
c0
7e
03
03
03
c3
7e
ENDCHAR
STARTCHAR 167
ENCODING 167
SWIDTH 617 0
DWIDTH 9 0
BBX 6 11 1 -1
BITMAP
78
cc
c0
78
cc
cc
cc
78
0c
cc
78
ENDCHAR
STARTCHAR 168
ENCODING 168
SWIDTH 617 0
DWIDTH 9 0
BBX 6 2 1 10
BITMAP
cc
cc
ENDCHAR
STARTCHAR 169
ENCODING 169
SWIDTH 617 0
DWIDTH 9 0
BBX 8 13 0 0
BITMAP
66
3c
00
7e
c3
c0
c0
7e
03
03
03
c3
7e
ENDCHAR
STARTCHAR 170
ENCODING 170
SWIDTH 617 0
DWIDTH 9 0
BBX 8 12 0 -2
BITMAP
7e
c3
c0
c0
7e
03
03
03
c3
7e
18
70
ENDCHAR
STARTCHAR 171
ENCODING 171
SWIDTH 617 0
DWIDTH 9 0
BBX 8 13 0 0
BITMAP
66
3c
00
ff
18
18
18
18
18
18
18
18
18
ENDCHAR
STARTCHAR 172
ENCODING 172
SWIDTH 617 0
DWIDTH 9 0
BBX 7 13 0 0
BITMAP
0e
38
00
fe
06
06
0c
18
30
60
c0
c0
fe
ENDCHAR
STARTCHAR 173
ENCODING 173
SWIDTH 617 0
DWIDTH 9 0
BBX 6 2 1 4
BITMAP
fc
fc
ENDCHAR
STARTCHAR 174
ENCODING 174
SWIDTH 617 0
DWIDTH 9 0
BBX 7 13 0 0
BITMAP
6c
38
00
fe
06
06
0c
18
30
60
c0
c0
fe
ENDCHAR
STARTCHAR 175
ENCODING 175
SWIDTH 617 0
DWIDTH 9 0
BBX 7 13 0 0
BITMAP
18
18
00
fe
06
06
0c
18
30
60
c0
c0
fe
ENDCHAR
STARTCHAR 176
ENCODING 176
SWIDTH 617 0
DWIDTH 9 0
BBX 6 4 1 7
BITMAP
78
cc
cc
78
ENDCHAR
STARTCHAR 177
ENCODING 177
SWIDTH 617 0
DWIDTH 9 0
BBX 9 9 0 -2
BITMAP
3e00
6300
0300
7f00
c300
c700
7b00
0600
0380
ENDCHAR
STARTCHAR 178
ENCODING 178
SWIDTH 617 0
DWIDTH 9 0
BBX 5 3 3 -2
BITMAP
c0
d8
70
ENDCHAR
STARTCHAR 179
ENCODING 179
SWIDTH 617 0
DWIDTH 9 0
BBX 6 10 1 0
BITMAP
70
34
3c
38
30
70
f0
b0
30
fc
ENDCHAR
STARTCHAR 180
ENCODING 180
SWIDTH 617 0
DWIDTH 9 0
BBX 4 3 3 9
BITMAP
30
60
c0
ENDCHAR
STARTCHAR 181
ENCODING 181
SWIDTH 617 0
DWIDTH 9 0
BBX 8 12 0 0
BITMAP
07
03
73
36
30
30
30
30
30
30
30
fc
ENDCHAR
STARTCHAR 182
ENCODING 182
SWIDTH 617 0
DWIDTH 9 0
BBX 8 11 0 0
BITMAP
06
0c
18
00
7e
c3
c0
7e
03
c3
7e
ENDCHAR
STARTCHAR 183
ENCODING 183
SWIDTH 617 0
DWIDTH 9 0
BBX 6 3 1 8
BITMAP
cc
78
30
ENDCHAR
STARTCHAR 184
ENCODING 184
SWIDTH 617 0
DWIDTH 9 0
BBX 5 3 1 -2
BITMAP
18
d8
70
ENDCHAR
STARTCHAR 185
ENCODING 185
SWIDTH 617 0
DWIDTH 9 0
BBX 8 11 0 0
BITMAP
66
3c
18
00
7e
c3
c0
7e
03
c3
7e
ENDCHAR
STARTCHAR 186
ENCODING 186
SWIDTH 617 0
DWIDTH 9 0
BBX 8 9 0 -2
BITMAP
7e
c3
c0
7e
03
c3
7e
18
70
ENDCHAR
STARTCHAR 187
ENCODING 187
SWIDTH 617 0
DWIDTH 9 0
BBX 8 11 0 0
BITMAP
07
03
33
36
f8
30
30
30
30
33
1e
ENDCHAR
STARTCHAR 188
ENCODING 188
SWIDTH 617 0
DWIDTH 9 0
BBX 6 11 1 0
BITMAP
0c
18
30
00
fc
0c
18
30
60
c0
fc
ENDCHAR
STARTCHAR 189
ENCODING 189
SWIDTH 617 0
DWIDTH 9 0
BBX 8 3 0 8
BITMAP
33
66
cc
ENDCHAR
STARTCHAR 190
ENCODING 190
SWIDTH 617 0
DWIDTH 9 0
BBX 6 11 1 0
BITMAP
cc
78
30
00
fc
0c
18
30
60
c0
fc
ENDCHAR
STARTCHAR 191
ENCODING 191
SWIDTH 617 0
DWIDTH 9 0
BBX 6 11 1 0
BITMAP
30
30
00
00
fc
0c
18
30
60
c0
fc
ENDCHAR
STARTCHAR 192
ENCODING 192
SWIDTH 617 0
DWIDTH 9 0
BBX 8 13 0 0
BITMAP
0e
38
00
fe
c3
c3
c3
fe
f8
cc
c6
c3
c3
ENDCHAR
STARTCHAR 193
ENCODING 193
SWIDTH 617 0
DWIDTH 9 0
BBX 8 13 0 0
BITMAP
0e
38
00
18
3c
66
c3
c3
c3
ff
c3
c3
c3
ENDCHAR
STARTCHAR 194
ENCODING 194
SWIDTH 617 0
DWIDTH 9 0
BBX 8 13 0 0
BITMAP
3c
66
00
18
3c
66
c3
c3
c3
ff
c3
c3
c3
ENDCHAR
STARTCHAR 195
ENCODING 195
SWIDTH 617 0
DWIDTH 9 0
BBX 8 13 0 0
BITMAP
c3
7e
00
18
3c
66
c3
c3
c3
ff
c3
c3
c3
ENDCHAR
STARTCHAR 196
ENCODING 196
SWIDTH 617 0
DWIDTH 9 0
BBX 8 13 0 0
BITMAP
66
66
00
18
3c
66
c3
c3
c3
ff
c3
c3
c3
ENDCHAR
STARTCHAR 197
ENCODING 197
SWIDTH 617 0
DWIDTH 9 0
BBX 7 13 0 0
BITMAP
1c
70
00
c0
c0
c0
c0
c0
c0
c0
c0
c0
fe
ENDCHAR
STARTCHAR 198
ENCODING 198
SWIDTH 617 0
DWIDTH 9 0
BBX 8 13 0 0
BITMAP
07
1c
00
3e
63
c1
c0
c0
c0
c0
c1
63
3e
ENDCHAR
STARTCHAR 199
ENCODING 199
SWIDTH 617 0
DWIDTH 9 0
BBX 8 12 0 -2
BITMAP
3e
63
c1
c0
c0
c0
c0
c1
63
3e
0c
38
ENDCHAR
STARTCHAR 200
ENCODING 200
SWIDTH 617 0
DWIDTH 9 0
BBX 8 13 0 0
BITMAP
36
1c
00
3e
63
c1
c0
c0
c0
c0
c1
63
3e
ENDCHAR
STARTCHAR 201
ENCODING 201
SWIDTH 617 0
DWIDTH 9 0
BBX 8 13 0 0
BITMAP
07
1c
00
fe
c0
c0
c0
fc
c0
c0
c0
c0
fe
ENDCHAR
STARTCHAR 202
ENCODING 202
SWIDTH 617 0
DWIDTH 9 0
BBX 8 12 0 -2
BITMAP
fe
c0
c0
c0
fc
c0
c0
c0
c0
fe
0c
07
ENDCHAR
STARTCHAR 203
ENCODING 203
SWIDTH 617 0
DWIDTH 9 0
BBX 7 13 0 0
BITMAP
66
66
00
fe
c0
c0
c0
fc
c0
c0
c0
c0
fe
ENDCHAR
STARTCHAR 204
ENCODING 204
SWIDTH 617 0
DWIDTH 9 0
BBX 7 13 0 0
BITMAP
66
3c
00
fe
c0
c0
c0
fc
c0
c0
c0
c0
fe
ENDCHAR
STARTCHAR 205
ENCODING 205
SWIDTH 617 0
DWIDTH 9 0
BBX 6 13 1 0
BITMAP
1c
70
00
fc
30
30
30
30
30
30
30
30
fc
ENDCHAR
STARTCHAR 206
ENCODING 206
SWIDTH 617 0
DWIDTH 9 0
BBX 6 13 1 0
BITMAP
78
cc
00
fc
30
30
30
30
30
30
30
30
fc
ENDCHAR
STARTCHAR 207
ENCODING 207
SWIDTH 617 0
DWIDTH 9 0
BBX 8 13 0 0
BITMAP
6c
38
00
fc
c6
c3
c3
c3
c3
c3
c3
c6
fc
ENDCHAR
STARTCHAR 208
ENCODING 208
SWIDTH 617 0
DWIDTH 9 0
BBX 8 10 0 0
BITMAP
fc
66
63
63
f3
f3
63
63
66
fc
ENDCHAR
STARTCHAR 209
ENCODING 209
SWIDTH 617 0
DWIDTH 9 0
BBX 8 13 0 0
BITMAP
0e
38
00
c3
e3
f3
f3
db
db
cf
c7
c7
c3
ENDCHAR
STARTCHAR 210
ENCODING 210
SWIDTH 617 0
DWIDTH 9 0
BBX 8 13 0 0
BITMAP
66
3c
00
c3
e3
f3
f3
db
db
cf
c7
c7
c3
ENDCHAR
STARTCHAR 211
ENCODING 211
SWIDTH 617 0
DWIDTH 9 0
BBX 8 13 0 0
BITMAP
0e
38
00
3c
66
c3
c3
c3
c3
c3
c3
66
3c
ENDCHAR
STARTCHAR 212
ENCODING 212
SWIDTH 617 0
DWIDTH 9 0
BBX 8 13 0 0
BITMAP
3c
66
00
3c
66
c3
c3
c3
c3
c3
c3
66
3c
ENDCHAR
STARTCHAR 213
ENCODING 213
SWIDTH 617 0
DWIDTH 9 0
BBX 8 13 0 0
BITMAP
33
66
00
3c
66
c3
c3
c3
c3
c3
c3
66
3c
ENDCHAR
STARTCHAR 214
ENCODING 214
SWIDTH 617 0
DWIDTH 9 0
BBX 8 13 0 0
BITMAP
66
66
00
3c
66
c3
c3
c3
c3
c3
c3
66
3c
ENDCHAR
STARTCHAR 215
ENCODING 215
SWIDTH 617 0
DWIDTH 9 0
BBX 7 8 1 1
BITMAP
82
c6
6c
38
38
6c
c6
82
ENDCHAR
STARTCHAR 216
ENCODING 216
SWIDTH 617 0
DWIDTH 9 0
BBX 8 13 0 0
BITMAP
66
3c
00
fe
c3
c3
c3
fe
f8
cc
c6
c3
c3
ENDCHAR
STARTCHAR 217
ENCODING 217
SWIDTH 617 0
DWIDTH 9 0
BBX 8 13 0 0
BITMAP
18
24
18
c3
c3
c3
c3
c3
c3
c3
c3
66
3c
ENDCHAR
STARTCHAR 218
ENCODING 218
SWIDTH 617 0
DWIDTH 9 0
BBX 8 13 0 0
BITMAP
0e
38
00
c3
c3
c3
c3
c3
c3
c3
c3
66
3c
ENDCHAR
STARTCHAR 219
ENCODING 219
SWIDTH 617 0
DWIDTH 9 0
BBX 8 13 0 0
BITMAP
33
66
00
c3
c3
c3
c3
c3
c3
c3
c3
66
3c
ENDCHAR
STARTCHAR 220
ENCODING 220
SWIDTH 617 0
DWIDTH 9 0
BBX 8 13 0 0
BITMAP
66
66
00
c3
c3
c3
c3
c3
c3
c3
c3
66
3c
ENDCHAR
STARTCHAR 221
ENCODING 221
SWIDTH 617 0
DWIDTH 9 0
BBX 8 13 0 0
BITMAP
0e
38
00
c3
c3
66
3c
18
18
18
18
18
18
ENDCHAR
STARTCHAR 222
ENCODING 222
SWIDTH 617 0
DWIDTH 9 0
BBX 8 12 0 -2
BITMAP
ff
18
18
18
18
18
18
18
18
18
0c
38
ENDCHAR
STARTCHAR 223
ENCODING 223
SWIDTH 617 0
DWIDTH 9 0
BBX 8 10 0 1
BITMAP
1e
33
63
66
ec
66
63
63
73
ce
ENDCHAR
STARTCHAR 224
ENCODING 224
SWIDTH 617 0
DWIDTH 9 0
BBX 8 11 0 0
BITMAP
06
0c
18
00
de
73
60
60
60
60
60
ENDCHAR
STARTCHAR 225
ENCODING 225
SWIDTH 617 0
DWIDTH 9 0
BBX 8 11 0 0
BITMAP
06
0c
18
00
3e
63
03
7f
c3
c7
7b
ENDCHAR
STARTCHAR 226
ENCODING 226
SWIDTH 617 0
DWIDTH 9 0
BBX 8 11 0 0
BITMAP
18
3c
66
00
3e
63
03
7f
c3
c7
7b
ENDCHAR
STARTCHAR 227
ENCODING 227
SWIDTH 617 0
DWIDTH 9 0
BBX 8 11 0 0
BITMAP
66
66
3c
00
3e
63
03
7f
c3
c7
7b
ENDCHAR
STARTCHAR 228
ENCODING 228
SWIDTH 617 0
DWIDTH 9 0
BBX 8 11 0 0
BITMAP
66
66
00
00
3e
63
03
7f
c3
c7
7b
ENDCHAR
STARTCHAR 229
ENCODING 229
SWIDTH 617 0
DWIDTH 9 0
BBX 6 13 1 0
BITMAP
1c
70
00
70
30
30
30
30
30
30
30
30
fc
ENDCHAR
STARTCHAR 230
ENCODING 230
SWIDTH 617 0
DWIDTH 9 0
BBX 8 11 0 0
BITMAP
06
0c
18
00
3e
63
c0
c0
c0
63
3e
ENDCHAR
STARTCHAR 231
ENCODING 231
SWIDTH 617 0
DWIDTH 9 0
BBX 8 9 0 -2
BITMAP
3e
63
c0
c0
c0
63
3e
0c
38
ENDCHAR
STARTCHAR 232
ENCODING 232
SWIDTH 617 0
DWIDTH 9 0
BBX 8 11 0 0
BITMAP
36
1c
08
00
3e
63
c0
c0
c0
63
3e
ENDCHAR
STARTCHAR 233
ENCODING 233
SWIDTH 617 0
DWIDTH 9 0
BBX 8 11 0 0
BITMAP
06
0c
18
00
3c
66
c3
ff
c0
63
3e
ENDCHAR
STARTCHAR 234
ENCODING 234
SWIDTH 617 0
DWIDTH 9 0
BBX 8 9 0 -2
BITMAP
3c
66
c3
ff
c0
63
3e
0c
07
ENDCHAR
STARTCHAR 235
ENCODING 235
SWIDTH 617 0
DWIDTH 9 0
BBX 8 10 0 0
BITMAP
66
66
00
3c
66
c3
ff
c0
63
3e
ENDCHAR
STARTCHAR 236
ENCODING 236
SWIDTH 617 0
DWIDTH 9 0
BBX 8 11 0 0
BITMAP
66
3c
18
00
3c
66
c3
ff
c0
63
3e
ENDCHAR
STARTCHAR 237
ENCODING 237
SWIDTH 617 0
DWIDTH 9 0
BBX 6 11 1 0
BITMAP
0c
18
30
00
70
30
30
30
30
30
fc
ENDCHAR
STARTCHAR 238
ENCODING 238
SWIDTH 617 0
DWIDTH 9 0
BBX 6 11 1 0
BITMAP
30
78
cc
00
70
30
30
30
30
30
fc
ENDCHAR
STARTCHAR 239
ENCODING 239
SWIDTH 617 0
DWIDTH 9 0
BBX 9 12 0 0
BITMAP
0380
0180
0780
0700
0600
3600
6e00
c600
c600
c600
6e00
3600
ENDCHAR
STARTCHAR 240
ENCODING 240
SWIDTH 617 0
DWIDTH 9 0
BBX 8 10 0 0
BITMAP
06
0f
06
36
6e
c6
c6
c6
6e
36
ENDCHAR
STARTCHAR 241
ENCODING 241
SWIDTH 617 0
DWIDTH 9 0
BBX 8 11 0 0
BITMAP
06
0c
18
00
dc
e6
c3
c3
c3
c3
c3
ENDCHAR
STARTCHAR 242
ENCODING 242
SWIDTH 617 0
DWIDTH 9 0
BBX 8 11 0 0
BITMAP
66
3c
18
00
dc
e6
c3
c3
c3
c3
c3
ENDCHAR
STARTCHAR 243
ENCODING 243
SWIDTH 617 0
DWIDTH 9 0
BBX 8 11 0 0
BITMAP
06
0c
18
00
3c
66
c3
c3
c3
66
3c
ENDCHAR
STARTCHAR 244
ENCODING 244
SWIDTH 617 0
DWIDTH 9 0
BBX 8 11 0 0
BITMAP
18
3c
66
00
3c
66
c3
c3
c3
66
3c
ENDCHAR
STARTCHAR 245
ENCODING 245
SWIDTH 617 0
DWIDTH 9 0
BBX 8 11 0 0
BITMAP
1b
36
6c
00
3c
66
c3
c3
c3
66
3c
ENDCHAR
STARTCHAR 246
ENCODING 246
SWIDTH 617 0
DWIDTH 9 0
BBX 8 11 0 0
BITMAP
66
66
00
00
3c
66
c3
c3
c3
66
3c
ENDCHAR
STARTCHAR 247
ENCODING 247
SWIDTH 617 0
DWIDTH 9 0
BBX 8 10 0 0
BITMAP
18
18
00
00
ff
ff
00
00
18
18
ENDCHAR
STARTCHAR 248
ENCODING 248
SWIDTH 617 0
DWIDTH 9 0
BBX 8 11 0 0
BITMAP
36
1c
08
00
de
73
60
60
60
60
60
ENDCHAR
STARTCHAR 249
ENCODING 249
SWIDTH 617 0
DWIDTH 9 0
BBX 8 12 0 0
BITMAP
18
24
24
18
00
c3
c3
c3
c3
c3
67
3b
ENDCHAR
STARTCHAR 250
ENCODING 250
SWIDTH 617 0
DWIDTH 9 0
BBX 8 11 0 0
BITMAP
06
0c
18
00
c3
c3
c3
c3
c3
67
3b
ENDCHAR
STARTCHAR 251
ENCODING 251
SWIDTH 617 0
DWIDTH 9 0
BBX 8 11 0 0
BITMAP
1b
36
6c
00
c3
c3
c3
c3
c3
67
3b
ENDCHAR
STARTCHAR 252
ENCODING 252
SWIDTH 617 0
DWIDTH 9 0
BBX 8 11 0 0
BITMAP
66
66
00
00
c3
c3
c3
c3
c3
67
3b
ENDCHAR
STARTCHAR 253
ENCODING 253
SWIDTH 617 0
DWIDTH 9 0
BBX 8 13 0 -2
BITMAP
06
0c
18
00
c3
c3
c3
c3
c3
67
3b
83
7e
ENDCHAR
STARTCHAR 254
ENCODING 254
SWIDTH 617 0
DWIDTH 9 0
BBX 8 11 0 -2
BITMAP
30
30
fc
30
30
30
30
33
1e
0c
38
ENDCHAR
STARTCHAR 255
ENCODING 255
SWIDTH 617 0
DWIDTH 9 0
BBX 2 2 3 9
BITMAP
c0
c0
ENDCHAR
ENDFONT
